# xmcd CD database file
#
# Track frame offsets:
#	150
#	14132
#	28997
#	40562
#	63028
#	78140
#	100259
#	114046
#	131995
#	149652
#	164090
#
# Disc length: 2336 seconds
#
# Revision: 0
# Processed by: cddbd v1.5.2PL0 Copyright (c) Steve Scherf et al.
# Submitted via: CDex 1.70beta2
#
DISCID=94091e0b
DTITLE=Barry Ward - Jioy Sweet Joy
DYEAR=2010
DGENRE=Country
TTITLE0=Joy Sweet Joy
TTITLE1=Ridin' Along The Cimarron
TTITLE2=Mansion Over The Hilltop
TTITLE3=Crown Of Thorns
TTITLE4=I Saw The Light - I'll Fly Away
TTITLE5=Wayfaring Stranger
TTITLE6=God's Perfect Love
TTITLE7=Suppertime
TTITLE8=The Desert Sand
TTITLE9=Too Much Trouble
TTITLE10=Life's Railway To Heaven
EXTD=YEAR: 2010
EXTT0=
EXTT1=
EXTT2=
EXTT3=
EXTT4=
EXTT5=
EXTT6=
EXTT7=
EXTT8=
EXTT9=
EXTT10=
PLAYORDER=
